<?xml version="1.0" encoding="UTF-8"?><svg id="Layer_2" xmlns="http://www.w3.org/2000/svg" viewBox="0 0 171.69 40"><defs><style>.cls-1{fill:#00aeef;}</style></defs><g id="Navigation"><path class="cls-1" d="m51.8,19c-5.5-2.61-12.07-.26-14.68,5.24-.38.8-.65,1.63-.83,2.46l6.4,3.03c-.16-.88-.05-1.81.36-2.68,1.06-2.23,3.72-3.18,5.94-2.12,2.23,1.06,3.18,3.72,2.12,5.94-1.05,2.21-3.68,3.16-5.9,2.14l-11.81-5.59h0s-.03-.02-.03-.02l5.81-12.28c2.16-5.37-.21-11.55-5.51-14.06-5.5-2.61-12.07-.26-14.68,5.24-2.61,5.5-.26,12.07,5.24,14.68.8.38,1.63.65,2.46.83l3.03-6.4c-.88.16-1.81.05-2.68-.36-2.23-1.05-3.18-3.72-2.12-5.94,1.06-2.23,3.72-3.18,5.94-2.12,2.21,1.05,3.16,3.68,2.14,5.9l-5.55,11.71-12.35-5.85c-5.37-2.16-11.55.21-14.06,5.51-2.61,5.5-.26,12.07,5.24,14.68,5.5,2.61,12.07.26,14.68-5.24.38-.8.65-1.63.83-2.46l-6.4-3.03c.16.88.05,1.81-.36,2.68-1.06,2.23-3.72,3.18-5.94,2.12-2.23-1.06-3.18-3.72-2.12-5.94,1.05-2.21,3.68-3.16,5.9-2.14l11.78,5.58h0s5.91,2.8,5.91,2.8h0s12.4,5.87,12.4,5.87c5.37,2.16,11.55-.21,14.06-5.51,2.61-5.5.26-12.07-5.24-14.68Z"/><path class="cls-1" d="m60.22,21.32c0-5.45,4.34-9.64,9.76-9.64,3.41,0,6.38,1.55,8.24,4.37.6.96,1.08,1.99,1.24,3.1h-4.99c-.75-1.91-2.43-3.28-4.49-3.28-3.05,0-5.01,2.58-5.01,5.45s1.96,5.55,5.01,5.55c2.12,0,3.67-1.32,4.49-3.15h4.99c-1.08,4.42-4.91,7.34-9.4,7.34-5.42,0-9.84-4.21-9.84-9.74Z"/><path class="cls-1" d="m81.56,11.68h4.93v15.01h5.76v4.37h-10.7V11.68Z"/><path class="cls-1" d="m93.08,21.55c0-1.37.23-2.69.75-3.98.26-.7.7-1.45,1.22-2.07,1.91-2.53,4.67-3.82,7.88-3.82,5.45,0,9.87,4.16,9.87,9.69s-4.42,9.69-9.89,9.69-9.82-4.11-9.82-9.51Zm4.78-.26c0,3,2.01,5.55,5.14,5.55s5.01-2.63,5.01-5.48-2.04-5.53-5.09-5.53-5.06,2.51-5.06,5.45Z"/><path class="cls-1" d="m132.24,11.68v19.38h-10.2c-2.01-.05-4.13-.59-5.5-2.07-1.73-1.86-1.94-3.51-1.94-5.94v-11.37h4.93v11.37c0,1.73.28,3.67,2.51,3.67h5.86v-15.04h4.34Z"/><path class="cls-1" d="m134.19,31.05V11.68h6.41c3.51,0,6.35.57,8.55,3.62,1.27,1.73,1.78,3.88,1.78,6.02,0,6.33-3.62,9.74-9.97,9.74h-6.77Zm4.94-15.04v10.7h2.12c3.41,0,4.75-2.2,4.75-5.35s-1.42-5.35-4.7-5.35h-2.17Z"/><path class="cls-1" d="m156.42,39.83l8.46-15.15c.29-.5.53-1.03.73-1.61.2-.57.29-1.07.29-1.49,0-1.12-.37-2.04-1.1-2.76-.73-.72-1.65-1.08-2.74-1.08s-2.01.36-2.74,1.08c-.73.72-1.1,1.64-1.1,2.76,0,2.56,1.37,3.92,4.11,4.07l-2.78,5.17c-2.14-.52-3.86-1.64-5.17-3.35-1.31-1.71-1.96-3.67-1.96-5.89,0-1.38.23-2.66.7-3.84.47-1.17,1.13-2.2,1.99-3.07.86-.87,1.89-1.55,3.07-2.02,1.19-.47,2.47-.71,3.86-.71s2.7.24,3.87.71c1.18.47,2.2,1.14,3.07,2.02.88.87,1.54,1.9,2,3.07.46,1.18.68,2.46.68,3.84,0,.94-.2,1.96-.61,3.05-.4,1.1-.93,2.25-1.59,3.44l-6.42,11.75h-6.65Z"/></g></svg>